<svg xmlns="http://www.w3.org/2000/svg" viewBox="0 0 100 100"><defs><style>.cls-1{fill:#3e3e3e;}</style></defs><title>ourlogo</title><g id="图层_2" data-name="图层 2"><g id="图层_1-2" data-name="图层 1"><path class="cls-1" d="M99.38,87.65H93.21a.62.62,0,0,1,0-1.23h5.56V1.23H13.58V6.79a.62.62,0,1,1-1.23,0V.62A.62.62,0,0,1,13,0H99.38a.62.62,0,0,1,.62.62V87A.62.62,0,0,1,99.38,87.65Z"/><path class="cls-1" d="M6.79,13.58A.62.62,0,0,1,6.17,13V6.79a.62.62,0,0,1,.62-.62H13a.62.62,0,0,1,0,1.23H7.41V13A.62.62,0,0,1,6.79,13.58Z"/><path class="cls-1" d="M93.21,93.83H87a.62.62,0,0,1,0-1.23h5.56V87a.62.62,0,0,1,1.23,0v6.17A.62.62,0,0,1,93.21,93.83Z"/><path class="cls-1" d="M93.21,87.65a.62.62,0,0,1-.62-.62V7.41H13a.62.62,0,0,1,0-1.23H93.21a.62.62,0,0,1,.62.62V87A.62.62,0,0,1,93.21,87.65Z"/><path class="cls-1" d="M87,87.65a.62.62,0,0,1-.62-.62V13.58H13a.62.62,0,1,1,0-1.23H87a.62.62,0,0,1,.62.62V87A.62.62,0,0,1,87,87.65Z"/><path class="cls-1" d="M13,13.58H6.79a.62.62,0,1,1,0-1.23H13a.62.62,0,1,1,0,1.23Z"/><path class="cls-1" d="M87,100H.62A.62.62,0,0,1,0,99.38V13a.62.62,0,0,1,.62-.62H6.79a.62.62,0,0,1,0,1.23H1.23V98.77H86.42V93.21a.62.62,0,0,1,1.23,0v6.17A.62.62,0,0,1,87,100Z"/><path class="cls-1" d="M87,93.83a.62.62,0,0,1-.62-.62V87a.62.62,0,0,1,1.23,0v6.17A.62.62,0,0,1,87,93.83Z"/><path class="cls-1" d="M18.23,62.54H14.58v7.31h-1V62.54H9.9v-1h8.33Z"/><path class="cls-1" d="M27.22,61.53v8.32h-1V66.2H19.91v3.66h-1V61.53h1v3.66H26.2V61.53Z"/><path class="cls-1" d="M36.22,66.2H31.16a3,3,0,0,0,.37,1,3.26,3.26,0,0,0,.69.83,3.21,3.21,0,0,0,.93.56,3,3,0,0,0,1.11.21v1a4,4,0,0,1-1.62-.33,4.21,4.21,0,0,1-2.22-2.22,4,4,0,0,1-.33-1.62v-.51h5.07a3,3,0,0,0-.37-1,3.23,3.23,0,0,0-.69-.84,3.14,3.14,0,0,0-.93-.56,3.08,3.08,0,0,0-1.11-.2,3,3,0,0,0-1.23.25,3.27,3.27,0,0,0-1,.67,3.14,3.14,0,0,0-.68,1,3,3,0,0,0-.25,1.22v4.17h-1V65.69a4,4,0,0,1,.33-1.62,4.21,4.21,0,0,1,2.22-2.22,4.18,4.18,0,0,1,3.24,0,4.21,4.21,0,0,1,2.22,2.22,4,4,0,0,1,.33,1.62Z"/><path class="cls-1" d="M41.06,68.84a3.23,3.23,0,0,0,1.32-.29,3.08,3.08,0,0,0,1-.78l.77.67a4.27,4.27,0,0,1-1.38,1,4.18,4.18,0,0,1-3.37.06,4.21,4.21,0,0,1-2.22-2.22,4.18,4.18,0,0,1,0-3.24,4.21,4.21,0,0,1,2.22-2.22,4.18,4.18,0,0,1,3.37.06,4.27,4.27,0,0,1,1.38,1l-.77.68a3.13,3.13,0,0,0-1-.79,3.05,3.05,0,0,0-1.32-.29,3.08,3.08,0,0,0-1.11.2,3.13,3.13,0,0,0-.93.56,3.25,3.25,0,0,0-1.07,1.88H43v1H37.95a3.15,3.15,0,0,0,.38,1,3.26,3.26,0,0,0,.69.83,3.21,3.21,0,0,0,.93.56A3,3,0,0,0,41.06,68.84Z"/><path class="cls-1" d="M49,68.84a3.23,3.23,0,0,0,1.32-.29,3.08,3.08,0,0,0,1-.78l.77.67a4.27,4.27,0,0,1-1.38,1,4.18,4.18,0,0,1-3.37.06,4.21,4.21,0,0,1-2.22-2.22,4.18,4.18,0,0,1,0-3.24,4.21,4.21,0,0,1,2.22-2.22,4.18,4.18,0,0,1,3.37.06,4.27,4.27,0,0,1,1.38,1l-.77.68a3.13,3.13,0,0,0-1-.79A3.05,3.05,0,0,0,49,62.54a3.08,3.08,0,0,0-1.11.2,3.13,3.13,0,0,0-.93.56,3.25,3.25,0,0,0-1.07,1.88H51v1H45.91a3.15,3.15,0,0,0,.38,1,3.26,3.26,0,0,0,.69.83,3.21,3.21,0,0,0,.93.56A3,3,0,0,0,49,68.84Z"/><path class="cls-1" d="M18.23,86.06a4,4,0,0,1-.33,1.62,4.21,4.21,0,0,1-2.22,2.22,4.19,4.19,0,0,1-3.38-.06,4.13,4.13,0,0,1-1.38-1l.77-.68a3.14,3.14,0,0,0,1,.79,3.05,3.05,0,0,0,1.32.29,3.08,3.08,0,0,0,1.11-.2,3.14,3.14,0,0,0,.93-.56,3.27,3.27,0,0,0,.69-.83,3,3,0,0,0,.37-1H9.9v-.51a4,4,0,0,1,.33-1.62,4.21,4.21,0,0,1,2.22-2.22,4.18,4.18,0,0,1,3.37.06,4.15,4.15,0,0,1,1.37,1l-.77.67A3.15,3.15,0,0,0,13,83.11a3.13,3.13,0,0,0-.93.56A3.25,3.25,0,0,0,11,85.55h7.28Z"/><path class="cls-1" d="M27.23,82.92H23.58v7.31h-1V82.92H18.9v-1h8.33Z"/><path class="cls-1" d="M26.86,86.06a4,4,0,0,1,.33-1.62,4.21,4.21,0,0,1,2.22-2.22,4.18,4.18,0,0,1,3.24,0,4.21,4.21,0,0,1,2.22,2.22,4.18,4.18,0,0,1,0,3.24,4.21,4.21,0,0,1-2.22,2.22,4.18,4.18,0,0,1-3.24,0,4.21,4.21,0,0,1-2.22-2.22A4,4,0,0,1,26.86,86.06Zm1,0a3,3,0,0,0,.25,1.23,3.23,3.23,0,0,0,.68,1,3.14,3.14,0,0,0,1,.67,3.15,3.15,0,0,0,3.45-.67,3.27,3.27,0,0,0,.67-1,3.12,3.12,0,0,0,0-2.45,3.13,3.13,0,0,0-1.67-1.67,3.13,3.13,0,0,0-2.45,0,3.27,3.27,0,0,0-1,.67,3.14,3.14,0,0,0-.68,1A3,3,0,0,0,27.87,86.06Z"/><path class="cls-1" d="M35.86,86.06a4,4,0,0,1,.33-1.62,4.21,4.21,0,0,1,2.22-2.22,4.18,4.18,0,0,1,3.24,0,4.21,4.21,0,0,1,2.22,2.22,4.18,4.18,0,0,1,0,3.24,4.21,4.21,0,0,1-2.22,2.22,4.18,4.18,0,0,1-3.24,0,4.21,4.21,0,0,1-2.22-2.22A4,4,0,0,1,35.86,86.06Zm1,0a3,3,0,0,0,.25,1.23,3.23,3.23,0,0,0,.68,1,3.14,3.14,0,0,0,1,.67,3.15,3.15,0,0,0,3.45-.67,3.27,3.27,0,0,0,.67-1,3.12,3.12,0,0,0,0-2.45,3.13,3.13,0,0,0-1.67-1.67,3.13,3.13,0,0,0-2.45,0,3.27,3.27,0,0,0-1,.67,3.14,3.14,0,0,0-.68,1A3,3,0,0,0,36.87,86.06Z"/><path class="cls-1" d="M53.19,85.55v.51a4,4,0,0,1-.33,1.62,4.21,4.21,0,0,1-2.22,2.22,4.18,4.18,0,0,1-3.24,0,4.21,4.21,0,0,1-2.22-2.22,4.18,4.18,0,0,1,0-3.24,4.21,4.21,0,0,1,2.22-2.22,4.18,4.18,0,0,1,3.37.06,4.2,4.2,0,0,1,1.38,1l-.77.67a3.13,3.13,0,0,0-1-.79,3.16,3.16,0,0,0-2.55,0,3.27,3.27,0,0,0-1,.67,3.06,3.06,0,0,0-.67,1,3.19,3.19,0,0,0,0,2.45A3.13,3.13,0,0,0,47.8,89a3.2,3.2,0,0,0,2.34,0,3.14,3.14,0,0,0,.93-.56,3.27,3.27,0,0,0,.69-.83,3,3,0,0,0,.37-1H47.06v-1Z"/><path class="cls-1" d="M58,89.21a3.23,3.23,0,0,0,1.32-.29,3.08,3.08,0,0,0,1-.78l.77.67a4.27,4.27,0,0,1-1.38,1,4.18,4.18,0,0,1-3.37.06,4.21,4.21,0,0,1-2.22-2.22,4.18,4.18,0,0,1,0-3.24,4.21,4.21,0,0,1,2.22-2.22,4.18,4.18,0,0,1,3.37.06,4.27,4.27,0,0,1,1.38,1l-.77.68a3.13,3.13,0,0,0-1-.79A3.05,3.05,0,0,0,58,82.92a3.08,3.08,0,0,0-1.11.2,3.13,3.13,0,0,0-.93.56,3.25,3.25,0,0,0-1.07,1.88H60v1H54.91a3.15,3.15,0,0,0,.38,1,3.26,3.26,0,0,0,.69.83,3.21,3.21,0,0,0,.93.56A3,3,0,0,0,58,89.21Z"/><path class="cls-1" d="M70.16,86.06a4,4,0,0,1-.33,1.62,4.21,4.21,0,0,1-2.22,2.22,4.19,4.19,0,0,1-3.38-.06,4.13,4.13,0,0,1-1.38-1l.77-.68a3.14,3.14,0,0,0,1,.79A3.05,3.05,0,0,0,66,89.2,3.08,3.08,0,0,0,67.1,89a3.14,3.14,0,0,0,.93-.56,3.27,3.27,0,0,0,.69-.83,3,3,0,0,0,.37-1H61.82v-.51a4,4,0,0,1,.33-1.62,4.21,4.21,0,0,1,2.22-2.22,4.18,4.18,0,0,1,3.37.06,4.15,4.15,0,0,1,1.37,1l-.77.67a3.15,3.15,0,0,0-3.47-.87,3.13,3.13,0,0,0-.93.56,3.25,3.25,0,0,0-1.07,1.88h7.28Z"/><path class="cls-1" d="M49.9,77.31a4.05,4.05,0,0,1-2.51-.82,5.42,5.42,0,0,0-6.15,0,4.05,4.05,0,0,1-2.51.82,4.1,4.1,0,0,1-2.51-.82,5.42,5.42,0,0,0-6.15,0,4.24,4.24,0,0,1-5,0,5,5,0,0,0-3.08-1,5,5,0,0,0-3.08,1,4.1,4.1,0,0,1-2.51.82,4.05,4.05,0,0,1-2.51-.82,5,5,0,0,0-3.08-1,.46.46,0,1,1,0-.93,6,6,0,0,1,3.57,1.1,3.33,3.33,0,0,0,4,0A6,6,0,0,1,22,74.61a6,6,0,0,1,3.57,1.1,3.33,3.33,0,0,0,4,0,6.34,6.34,0,0,1,7.14,0,3.33,3.33,0,0,0,4,0,6.34,6.34,0,0,1,7.14,0,3.33,3.33,0,0,0,4,0,.46.46,0,0,1,.5.78A4,4,0,0,1,49.9,77.31Z"/></g></g></svg>