<svg xmlns="http://www.w3.org/2000/svg" viewBox="0 0 778.55 80"><defs><style>.cls-1{fill:#393f44;}</style></defs><title>title_img</title><g id="图层_2" data-name="图层 2"><g id="图层_1-2" data-name="图层 1"><path class="cls-1" d="M115.69,35H193v8.84H115.69ZM627,.08q1.19,2.81,3,8.25h32.31V26.78h-8.93V16.49H597.48v10.2h-8.93V8.33h32.05a68.35,68.35,0,0,0-3.32-6.72ZM595.87,43.27h59V51.6H629.79V68.35H662v8.5H588.73v-8.5h32.05V51.6H595.87ZM37.58,3.66v8.67h7.91a50.9,50.9,0,0,1-2.3,10,29.47,29.47,0,0,1-6,9.69l5.27,6.72a37.79,37.79,0,0,0,8.25-12.5A71.14,71.14,0,0,0,54,12.33H64.27q-.26,11.82-.94,14-.85,3.91-4,4.08-1.79,0-7.91-.34l2.64,7.74a58.42,58.42,0,0,0,6.21.42q7.82,0,10.29-6.8,2-5.36,2.55-27.8ZM7,79.66h8.76V76.6H60.28v3H69V40.21H7Zm35.71-31.2h17.6v6H42.68Zm-27,0H33.84v6H15.73Zm0,13.86H60.28v6H15.73ZM30.88,22.37c-3.4,1.36-14.13,5.09-19.41,6.62V14.11q14.37-2,23.72-6.72L30.78,0Q19.47,5.44,2.89,7V25.59a7.49,7.49,0,0,1-2.89,6L3.15,39.7a280.55,280.55,0,0,0,30.37-9.43ZM366.79,54.5a78.71,78.71,0,0,1-8.42,21.34L350.72,71A60.35,60.35,0,0,0,358,52.54ZM380.05,77.7q-9.61,0-9.61-9.78V51.78h9V66.06q0,3.06,3.32,3.06h17.77a3.31,3.31,0,0,0,2.72-1.28q1.1-1.36,1.44-8.08l8.42,2.89q-1,11.05-3.66,13.09-2.47,2-7.4,2Zm10.54-28.06a99.76,99.76,0,0,1,8.84,10.63l-7.06,4.93A101,101,0,0,0,383.71,54Zm26.35.17A158.07,158.07,0,0,1,429.7,68.35l-7.57,5.27a169.81,169.81,0,0,0-12.41-19.3ZM373.67,21.08V18.53h10V10.37h-10V1.87h-8.93v8.5h-13v8.16h12.67A61.49,61.49,0,0,1,350,36.22l3.23,8.42a88.31,88.31,0,0,0,11.48-15.47v19.3h8.93V21.08ZM388,3.4v7.82h26.69v4.93H388v7.14h26.69v4.76H388V35.2h26.69v5H388v7.65h35.28V3.4ZM529.79,51.69a94.87,94.87,0,0,0,12.75-6.12l-5.87-6.72a76.38,76.38,0,0,1-20,9,40.34,40.34,0,0,0-8.33-9.95h32V17.17H486.69q3-2,6.46-4.59h32.37l1.13-1.11V5.78H501.05l3.57-3.66L495.27,0a79.76,79.76,0,0,1-27.2,17.43l5.53,6.8q2-1,4-1.87V37.92h15.47q-8.16,4.51-22.36,6.55l3.4,7.4q17.26-2.8,27.38-9.78,1,.85,3.06,2.89-11.82,7.31-33.24,12.16l4.33,7.48q20.49-5.61,33-14.28a15.44,15.44,0,0,1,1.79,3.49q-14.2,9.86-40,16.24L475,77.62q23-6.29,37.32-15.9l.09,1.36q0,5-2,6.8a10.94,10.94,0,0,1-5.78,1.87q-4.08.17-7.82.17L499.44,80q3.32,0,6.12-.26,8.67-.94,12-3.83,3.83-3.57,3.83-12.84A32.92,32.92,0,0,0,519.93,55a15,15,0,0,1,2.21-.68q5.87,11.9,19,21.93l6-7.65Q534.8,61.3,529.79,51.69ZM514.4,24.48h17.17v6.12H511.94A32,32,0,0,0,514.4,24.48Zm-12.33,6.12H486.35V24.48h19A23.13,23.13,0,0,1,502.07,30.61ZM707.82,15h8.67V79.58h-8.67Zm53.81,63.85-2.38-8.33,7.4.26q3.23,0,3.23-4.51V12.5H738.25V4.34h40.3V68.69q0,10.12-10.12,10.12Zm-36-55.6V64.87H734V31h17.94v9.18H739.65v7.65h12.29V57H739.65v7.82h20.54V23.21ZM243.49,57.13l7.4,3.57a87,87,0,0,1-10.63,18.79l-7.31-5.36A69.76,69.76,0,0,0,243.49,57.13Zm34.87-40.21h29.15V8.67H278.36ZM299,56.71l-7.23,4.59a145.71,145.71,0,0,1,12,18.62l7.48-5.1A170.79,170.79,0,0,0,299,56.71Zm-25.25,3.74a96.07,96.07,0,0,1,5.87,19l8.84-2.13a150.56,150.56,0,0,0-6.38-18.53Zm-17.6,1.19a137.14,137.14,0,0,1,3.91,17.94L269,77.45q-2.21-10-4.51-17.51Zm19.21-36.39V1.45h-8.76v23.8h-23V54.67h8.84V33.5h41V54.67h8.84V25.25Z"/></g></g></svg>