<svg xmlns="http://www.w3.org/2000/svg" viewBox="0 0 27.5 22"><title>wechat_black_icon</title><g id="图层_2" data-name="图层 2"><g id="图层_1-2" data-name="图层 1"><g id="wechat_black_icon"><path d="M9.74,0C4.39,0,0,3.58,0,8.12c0,2.63,1.46,4.78,3.9,6.45l-1,2.88,3.41-1.67a17.19,17.19,0,0,0,3.41.48c.29,0,.6,0,.91,0a6.89,6.89,0,0,1-.31-2c0-4.17,3.65-7.56,8.28-7.56a7.76,7.76,0,0,1,.94.05C18.71,2.85,14.52,0,9.74,0ZM6.49,6.72A1.38,1.38,0,1,1,7.87,5.34,1.38,1.38,0,0,1,6.49,6.72Zm6.77,0a1.38,1.38,0,1,1,1.38-1.38,1.38,1.38,0,0,1-1.38,1.38Zm0,0"/><path d="M19.23,7.16C14.6,7.16,11,10.28,11,14.11S14.6,21,19.23,21a12.61,12.61,0,0,0,2.92-.48L24.83,22l-.74-2.39c2-1.44,3.41-3.35,3.41-5.5,0-3.83-3.9-6.95-8.27-6.95ZM16.67,13a1.1,1.1,0,1,1,1.1-1.1,1.1,1.1,0,0,1-1.1,1.1ZM22,13a1.1,1.1,0,1,1,1.1-1.1A1.1,1.1,0,0,1,22,13Zm0,0"/></g></g></g></svg>