<svg xmlns="http://www.w3.org/2000/svg" viewBox="0 0 27.5 22"><defs><style>.cls-1{fill:#fff;}</style></defs><title>weibo_white_icon</title><g id="图层_2" data-name="图层 2"><g id="图层_1-2" data-name="图层 1"><g id="weibo_white_icon"><path class="cls-1" d="M27.06,9.52h0c-.12.84-.54.91-1,.91a1,1,0,0,1-1.08-1,3.18,3.18,0,0,1,.21-1,4.84,4.84,0,0,0-.33-3.59,5.69,5.69,0,0,0-5.35-2.65,5.1,5.1,0,0,1-1,.23A1.08,1.08,0,0,1,18.2.28a0,0,0,0,1,0,0s.07,0,.1,0A9.23,9.23,0,0,1,22,.18c2.86.67,6.79,3.44,5,9.34Zm-7.83-4a.75.75,0,0,1,0-1.49s4.63-.86,4.08,4.12a.74.74,0,0,1-1.48,0c0-.2.73-3.33-2.59-2.59Zm.38,1.41a2.54,2.54,0,0,1,.21,3s-.52.58.55.78,4.45,1.78,2.59,5.73S15,22.32,10.44,22C6.13,21.62.59,20.19,0,15c0,0-.3-2.37,2-5.43,0,0,3.3-4.61,7.13-5.92s4.29.91,4.29,2.21c-.21,1.11-.59,1.76.85,1.32,0,0,3.78-1.75,5.33-.2ZM10.78,9.79c-4.5.21-8.14,2.62-8.14,5.64s3.64,5.27,8.14,5.06,8.15-3,8.15-6-3.65-4.87-8.15-4.66ZM7.09,18.58a2.35,2.35,0,0,1-1.21-2,4.26,4.26,0,0,1,4-4.78c4.54-.53,5.34,3.81,4,5.59a5.25,5.25,0,0,1-6.76,1.22Zm1.57-3.48a1.62,1.62,0,0,0-1.45,1.53,1.24,1.24,0,0,0,1.53,1.1,1.64,1.64,0,0,0,1.53-1.45c0-.71-.63-1.27-1.6-1.18Zm3-.51a.55.55,0,0,0-.84-.07.67.67,0,0,0-.19.86.52.52,0,0,0,.79.07.7.7,0,0,0,.24-.86Zm0,0"/></g></g></g></svg>